<?xml version="1.0" encoding="UTF-8"?>
<svg id="_レイヤー_1" data-name="レイヤー 1" xmlns="http://www.w3.org/2000/svg" viewBox="0 0 640 640">
  <defs>
    <style>
      .cls-1 {
        fill: #fff;
      }

      .cls-2 {
        fill: #ece031;
      }

      .cls-3 {
        fill: #323333;
      }

      .cls-4 {
        fill: #d95910;
      }

      .cls-5 {
        fill: #3464ae;
      }

      .cls-6 {
        fill: #4eb35d;
      }
    </style>
  </defs>
  <circle class="cls-6" cx="338.32" cy="330.84" r="245.57"/>
  <ellipse class="cls-4" cx="420.08" cy="372.66" rx="105.27" ry="77.17"/>
  <path class="cls-2" d="M97.36,527.05c-.09,.11-.19,.23-.28,.34-22.9-59.31-26.36-125.95-9.71-187.31,9.91-36.54,30.26-74.41,66.05-86.78,71.72-24.77,168.91,33.34,150.05,114.93-6.41,27.72-23.58,50.99-44.16,70.01-19.98,18.46-41.87,17.84-67.25,22.79-38.54,7.52-69.67,35.74-94.7,66.02Z"/>
  <path class="cls-3" d="M190.41,303.57c2.22-1.17,3.28-3.14,1.55-6.77-2.32-4.87-8.88-10.13-13.96-11.9-6.95-2.42-12.74,2.46-17.52,6.9-5.62,5.23-10.07,11.6-13.36,18.52-4.3,9.04-6.92,19.22-7.38,29.24-.02,.46-.05,.93-.04,1.39-.05-3.11,7.77-10.42,9.76-12.74,6.8-7.89,15.64-16.8,25.74-20.61,4.93-1.86,10.5-1.57,15.21-4.04Z"/>
  <ellipse class="cls-1" cx="355.55" cy="223.28" rx="82.34" ry="73.67"/>
  <ellipse class="cls-5" cx="355.55" cy="223.28" rx="63.32" ry="56.71"/>
  <circle class="cls-1" cx="337.97" cy="216.56" r="30.56"/>
  <path class="cls-6" d="M366.67,89.66c-14.08-11.53-31.83-19.78-50.66-24.91-9.62-2.62-19.56-4.44-29.62-5.47-4.88-.5-9.79-.81-14.7-.93-3.86-.1-11.16-1.01-14.38,.56,1.65,1.49,5.65,2.83,8.09,3.58,7.22,2.21,14.26,4.68,21,7.74,6.14,2.78,12.21,5.95,17.26,9.97,3.1,2.47,6.77,5.75,7.27,9.47"/>
  <path class="cls-6" d="M319.79,94.56c-13.06-9.77-28.62-15.87-44.61-18.75-8.17-1.47-16.49-2.11-24.79-1.96-4.03,.07-8.05,.34-12.05,.79-3.14,.36-9.19,.31-11.57,2.23,1.55,1.28,4.98,2.14,7.07,2.6,6.16,1.34,12.22,2.97,18.13,5.21,5.37,2.04,10.75,4.46,15.41,7.86,2.87,2.08,6.31,4.91,7.24,8.52"/>
</svg>